<mxfile host="65bd71144e">
    <diagram name="Страница — 1" id="Fgaqp2sRuHoM_ZRPauie">
        <mxGraphModel dx="2156" dy="2095" grid="1" gridSize="12" guides="1" tooltips="1" connect="1" arrows="1" fold="1" page="1" pageScale="1" pageWidth="827" pageHeight="1169" background="none" math="0" shadow="0">
            <root>
                <mxCell id="0"/>
                <mxCell id="1" parent="0"/>
                <mxCell id="dZgCieCtQWInw7pm0opj-21" value="Авторизаци/Регистрация&lt;br&gt;Скачать Приложение" style="html=1;whiteSpace=wrap;rounded=0;sketch=1;curveFitting=1;jiggle=2;" parent="1" vertex="1">
                    <mxGeometry x="314" y="720" width="240" height="80" as="geometry"/>
                </mxCell>
                <mxCell id="dZgCieCtQWInw7pm0opj-25" value="Лента" style="html=1;whiteSpace=wrap;rounded=0;sketch=1;curveFitting=1;jiggle=2;" parent="1" vertex="1">
                    <mxGeometry x="515.5" y="1090" width="110" height="40" as="geometry"/>
                </mxCell>
                <mxCell id="dZgCieCtQWInw7pm0opj-27" value="" style="endArrow=classic;html=1;rounded=0;entryX=0.5;entryY=0;entryDx=0;entryDy=0;sketch=1;curveFitting=1;jiggle=2;" parent="1" edge="1">
                    <mxGeometry width="50" height="50" relative="1" as="geometry">
                        <mxPoint x="355.5" y="970" as="sourcePoint"/>
                        <mxPoint x="100.5" y="1090" as="targetPoint"/>
                    </mxGeometry>
                </mxCell>
                <mxCell id="dZgCieCtQWInw7pm0opj-28" value="" style="endArrow=classic;html=1;rounded=0;entryX=0.5;entryY=0;entryDx=0;entryDy=0;sketch=1;curveFitting=1;jiggle=2;" parent="1" edge="1">
                    <mxGeometry width="50" height="50" relative="1" as="geometry">
                        <mxPoint x="398.5" y="970" as="sourcePoint"/>
                        <mxPoint x="250.5" y="1090" as="targetPoint"/>
                    </mxGeometry>
                </mxCell>
                <mxCell id="dZgCieCtQWInw7pm0opj-29" value="" style="endArrow=classic;html=1;rounded=0;entryX=0.5;entryY=0;entryDx=0;entryDy=0;sketch=1;curveFitting=1;jiggle=2;" parent="1" edge="1">
                    <mxGeometry width="50" height="50" relative="1" as="geometry">
                        <mxPoint x="428.5" y="970" as="sourcePoint"/>
                        <mxPoint x="419" y="1090" as="targetPoint"/>
                    </mxGeometry>
                </mxCell>
                <mxCell id="dZgCieCtQWInw7pm0opj-30" value="" style="endArrow=classic;html=1;rounded=0;entryX=0.5;entryY=0;entryDx=0;entryDy=0;sketch=1;curveFitting=1;jiggle=2;" parent="1" target="dZgCieCtQWInw7pm0opj-25" edge="1">
                    <mxGeometry width="50" height="50" relative="1" as="geometry">
                        <mxPoint x="478.5" y="970" as="sourcePoint"/>
                        <mxPoint x="224" y="1090" as="targetPoint"/>
                    </mxGeometry>
                </mxCell>
                <mxCell id="dZgCieCtQWInw7pm0opj-31" value="" style="endArrow=classic;html=1;rounded=0;entryX=0.568;entryY=0;entryDx=0;entryDy=0;entryPerimeter=0;sketch=1;curveFitting=1;jiggle=2;" parent="1" edge="1">
                    <mxGeometry width="50" height="50" relative="1" as="geometry">
                        <mxPoint x="515.5" y="970" as="sourcePoint"/>
                        <mxPoint x="734.98" y="1090" as="targetPoint"/>
                    </mxGeometry>
                </mxCell>
                <mxCell id="dZgCieCtQWInw7pm0opj-37" value="Расписание" style="swimlane;fontStyle=0;childLayout=stackLayout;horizontal=1;startSize=30;horizontalStack=0;resizeParent=1;resizeParentMax=0;resizeLast=0;collapsible=1;marginBottom=0;whiteSpace=wrap;html=1;rounded=0;sketch=1;curveFitting=1;jiggle=2;" parent="1" vertex="1">
                    <mxGeometry x="34" y="1090" width="120" height="120" as="geometry"/>
                </mxCell>
                <mxCell id="dZgCieCtQWInw7pm0opj-38" value="Календарь" style="text;strokeColor=none;fillColor=none;align=left;verticalAlign=middle;spacingLeft=4;spacingRight=4;overflow=hidden;points=[[0,0.5],[1,0.5]];portConstraint=eastwest;rotatable=0;whiteSpace=wrap;html=1;rounded=0;sketch=1;curveFitting=1;jiggle=2;" parent="dZgCieCtQWInw7pm0opj-37" vertex="1">
                    <mxGeometry y="30" width="120" height="30" as="geometry"/>
                </mxCell>
                <mxCell id="dZgCieCtQWInw7pm0opj-39" value="Расписание" style="text;strokeColor=none;fillColor=none;align=left;verticalAlign=middle;spacingLeft=4;spacingRight=4;overflow=hidden;points=[[0,0.5],[1,0.5]];portConstraint=eastwest;rotatable=0;whiteSpace=wrap;html=1;rounded=0;sketch=1;curveFitting=1;jiggle=2;" parent="dZgCieCtQWInw7pm0opj-37" vertex="1">
                    <mxGeometry y="60" width="120" height="30" as="geometry"/>
                </mxCell>
                <mxCell id="dZgCieCtQWInw7pm0opj-40" value="Журнал посещ." style="text;strokeColor=none;fillColor=none;align=left;verticalAlign=middle;spacingLeft=4;spacingRight=4;overflow=hidden;points=[[0,0.5],[1,0.5]];portConstraint=eastwest;rotatable=0;whiteSpace=wrap;html=1;rounded=0;sketch=1;curveFitting=1;jiggle=2;" parent="dZgCieCtQWInw7pm0opj-37" vertex="1">
                    <mxGeometry y="90" width="120" height="30" as="geometry"/>
                </mxCell>
                <mxCell id="dZgCieCtQWInw7pm0opj-42" value="Личный Профиль" style="swimlane;fontStyle=0;childLayout=stackLayout;horizontal=1;startSize=30;horizontalStack=0;resizeParent=1;resizeParentMax=0;resizeLast=0;collapsible=1;marginBottom=0;whiteSpace=wrap;html=1;rounded=0;sketch=1;curveFitting=1;jiggle=2;" parent="1" vertex="1">
                    <mxGeometry x="194" y="1090" width="120" height="120" as="geometry"/>
                </mxCell>
                <mxCell id="dZgCieCtQWInw7pm0opj-43" value="Документы" style="text;strokeColor=none;fillColor=none;align=left;verticalAlign=middle;spacingLeft=4;spacingRight=4;overflow=hidden;points=[[0,0.5],[1,0.5]];portConstraint=eastwest;rotatable=0;whiteSpace=wrap;html=1;rounded=0;sketch=1;curveFitting=1;jiggle=2;" parent="dZgCieCtQWInw7pm0opj-42" vertex="1">
                    <mxGeometry y="30" width="120" height="30" as="geometry"/>
                </mxCell>
                <mxCell id="dZgCieCtQWInw7pm0opj-44" value="Справки" style="text;strokeColor=none;fillColor=none;align=left;verticalAlign=middle;spacingLeft=4;spacingRight=4;overflow=hidden;points=[[0,0.5],[1,0.5]];portConstraint=eastwest;rotatable=0;whiteSpace=wrap;html=1;rounded=0;sketch=1;curveFitting=1;jiggle=2;" parent="dZgCieCtQWInw7pm0opj-42" vertex="1">
                    <mxGeometry y="60" width="120" height="30" as="geometry"/>
                </mxCell>
                <mxCell id="dZgCieCtQWInw7pm0opj-45" value="Личные достижения" style="text;strokeColor=none;fillColor=none;align=left;verticalAlign=middle;spacingLeft=4;spacingRight=4;overflow=hidden;points=[[0,0.5],[1,0.5]];portConstraint=eastwest;rotatable=0;whiteSpace=wrap;html=1;rounded=0;sketch=1;curveFitting=1;jiggle=2;" parent="dZgCieCtQWInw7pm0opj-42" vertex="1">
                    <mxGeometry y="90" width="120" height="30" as="geometry"/>
                </mxCell>
                <mxCell id="dZgCieCtQWInw7pm0opj-46" value="Уч. процесс" style="swimlane;fontStyle=0;childLayout=stackLayout;horizontal=1;startSize=30;horizontalStack=0;resizeParent=1;resizeParentMax=0;resizeLast=0;collapsible=1;marginBottom=0;whiteSpace=wrap;html=1;rounded=0;sketch=1;curveFitting=1;jiggle=2;" parent="1" vertex="1">
                    <mxGeometry x="354" y="1090" width="120" height="120" as="geometry"/>
                </mxCell>
                <mxCell id="dZgCieCtQWInw7pm0opj-47" value="Тесты" style="text;strokeColor=none;fillColor=none;align=left;verticalAlign=middle;spacingLeft=4;spacingRight=4;overflow=hidden;points=[[0,0.5],[1,0.5]];portConstraint=eastwest;rotatable=0;whiteSpace=wrap;html=1;rounded=0;sketch=1;curveFitting=1;jiggle=2;" parent="dZgCieCtQWInw7pm0opj-46" vertex="1">
                    <mxGeometry y="30" width="120" height="30" as="geometry"/>
                </mxCell>
                <mxCell id="dZgCieCtQWInw7pm0opj-48" value="Д/З" style="text;strokeColor=none;fillColor=none;align=left;verticalAlign=middle;spacingLeft=4;spacingRight=4;overflow=hidden;points=[[0,0.5],[1,0.5]];portConstraint=eastwest;rotatable=0;whiteSpace=wrap;html=1;rounded=0;sketch=1;curveFitting=1;jiggle=2;" parent="dZgCieCtQWInw7pm0opj-46" vertex="1">
                    <mxGeometry y="60" width="120" height="30" as="geometry"/>
                </mxCell>
                <mxCell id="dZgCieCtQWInw7pm0opj-49" value="Уч. План" style="text;strokeColor=none;fillColor=none;align=left;verticalAlign=middle;spacingLeft=4;spacingRight=4;overflow=hidden;points=[[0,0.5],[1,0.5]];portConstraint=eastwest;rotatable=0;whiteSpace=wrap;html=1;rounded=0;sketch=1;curveFitting=1;jiggle=2;" parent="dZgCieCtQWInw7pm0opj-46" vertex="1">
                    <mxGeometry y="90" width="120" height="30" as="geometry"/>
                </mxCell>
                <mxCell id="dZgCieCtQWInw7pm0opj-50" value="Трансляции" style="swimlane;fontStyle=0;childLayout=stackLayout;horizontal=1;startSize=30;horizontalStack=0;resizeParent=1;resizeParentMax=0;resizeLast=0;collapsible=1;marginBottom=0;whiteSpace=wrap;html=1;rounded=0;sketch=1;curveFitting=1;jiggle=2;" parent="1" vertex="1">
                    <mxGeometry x="674" y="1090" width="120" height="90" as="geometry"/>
                </mxCell>
                <mxCell id="dZgCieCtQWInw7pm0opj-51" value="Прямые" style="text;strokeColor=none;fillColor=none;align=left;verticalAlign=middle;spacingLeft=4;spacingRight=4;overflow=hidden;points=[[0,0.5],[1,0.5]];portConstraint=eastwest;rotatable=0;whiteSpace=wrap;html=1;rounded=0;sketch=1;curveFitting=1;jiggle=2;" parent="dZgCieCtQWInw7pm0opj-50" vertex="1">
                    <mxGeometry y="30" width="120" height="30" as="geometry"/>
                </mxCell>
                <mxCell id="dZgCieCtQWInw7pm0opj-52" value="Записи" style="text;strokeColor=none;fillColor=none;align=left;verticalAlign=middle;spacingLeft=4;spacingRight=4;overflow=hidden;points=[[0,0.5],[1,0.5]];portConstraint=eastwest;rotatable=0;whiteSpace=wrap;html=1;rounded=0;sketch=1;curveFitting=1;jiggle=2;" parent="dZgCieCtQWInw7pm0opj-50" vertex="1">
                    <mxGeometry y="60" width="120" height="30" as="geometry"/>
                </mxCell>
                <mxCell id="dZgCieCtQWInw7pm0opj-62" value="" style="endArrow=none;dashed=1;html=1;dashPattern=1 3;strokeWidth=2;rounded=0;entryX=0;entryY=0.5;entryDx=0;entryDy=0;sketch=1;curveFitting=1;jiggle=2;" parent="1" target="dZgCieCtQWInw7pm0opj-51" edge="1">
                    <mxGeometry width="50" height="50" relative="1" as="geometry">
                        <mxPoint x="154" y="1135" as="sourcePoint"/>
                        <mxPoint x="814" y="1060" as="targetPoint"/>
                        <Array as="points">
                            <mxPoint x="194" y="1060"/>
                            <mxPoint x="634" y="1060"/>
                            <mxPoint x="644" y="1130"/>
                        </Array>
                    </mxGeometry>
                </mxCell>
                <mxCell id="dZgCieCtQWInw7pm0opj-63" value="" style="endArrow=none;dashed=1;html=1;dashPattern=1 3;strokeWidth=2;rounded=0;exitX=0;exitY=0.5;exitDx=0;exitDy=0;sketch=1;curveFitting=1;jiggle=2;" parent="1" source="dZgCieCtQWInw7pm0opj-52" edge="1">
                    <mxGeometry width="50" height="50" relative="1" as="geometry">
                        <mxPoint x="594" y="1180" as="sourcePoint"/>
                        <mxPoint x="644" y="1130" as="targetPoint"/>
                    </mxGeometry>
                </mxCell>
                <mxCell id="dZgCieCtQWInw7pm0opj-64" value="" style="endArrow=none;dashed=1;html=1;dashPattern=1 3;strokeWidth=2;rounded=0;entryX=0;entryY=0.5;entryDx=0;entryDy=0;sketch=1;curveFitting=1;jiggle=2;" parent="1" target="dZgCieCtQWInw7pm0opj-47" edge="1">
                    <mxGeometry width="50" height="50" relative="1" as="geometry">
                        <mxPoint x="154" y="1135" as="sourcePoint"/>
                        <mxPoint x="344" y="1250" as="targetPoint"/>
                        <Array as="points">
                            <mxPoint x="194" y="1250"/>
                            <mxPoint x="324" y="1250"/>
                            <mxPoint x="324" y="1135"/>
                        </Array>
                    </mxGeometry>
                </mxCell>
                <mxCell id="dZgCieCtQWInw7pm0opj-65" value="" style="endArrow=none;dashed=1;html=1;dashPattern=1 3;strokeWidth=2;rounded=0;entryX=0;entryY=0.5;entryDx=0;entryDy=0;sketch=1;curveFitting=1;jiggle=2;" parent="1" target="dZgCieCtQWInw7pm0opj-48" edge="1">
                    <mxGeometry width="50" height="50" relative="1" as="geometry">
                        <mxPoint x="324" y="1140" as="sourcePoint"/>
                        <mxPoint x="374" y="1160" as="targetPoint"/>
                    </mxGeometry>
                </mxCell>
                <mxCell id="vMTxhLcuIAne0KD6eCTi-2" value="Главная страница сайта" style="rounded=0;whiteSpace=wrap;html=1;hachureGap=4;fontFamily=Architects Daughter;fontSource=https%3A%2F%2Ffonts.googleapis.com%2Fcss%3Ffamily%3DArchitects%2BDaughter;sketch=1;curveFitting=1;jiggle=2;" parent="1" vertex="1">
                    <mxGeometry x="340" y="-130" width="210" height="90" as="geometry"/>
                </mxCell>
                <mxCell id="vMTxhLcuIAne0KD6eCTi-7" value="Контакты" style="swimlane;fontStyle=0;childLayout=stackLayout;horizontal=1;startSize=30;horizontalStack=0;resizeParent=1;resizeParentMax=0;resizeLast=0;collapsible=1;marginBottom=0;whiteSpace=wrap;html=1;hachureGap=4;fontFamily=Architects Daughter;fontSource=https%3A%2F%2Ffonts.googleapis.com%2Fcss%3Ffamily%3DArchitects%2BDaughter;rounded=0;sketch=1;curveFitting=1;jiggle=2;" parent="1" vertex="1">
                    <mxGeometry x="-48" y="-264" width="140" height="150" as="geometry"/>
                </mxCell>
                <mxCell id="vMTxhLcuIAne0KD6eCTi-8" value="Почта" style="text;strokeColor=none;fillColor=none;align=left;verticalAlign=middle;spacingLeft=4;spacingRight=4;overflow=hidden;points=[[0,0.5],[1,0.5]];portConstraint=eastwest;rotatable=0;whiteSpace=wrap;html=1;fontFamily=Architects Daughter;fontSource=https%3A%2F%2Ffonts.googleapis.com%2Fcss%3Ffamily%3DArchitects%2BDaughter;rounded=0;sketch=1;curveFitting=1;jiggle=2;" parent="vMTxhLcuIAne0KD6eCTi-7" vertex="1">
                    <mxGeometry y="30" width="140" height="30" as="geometry"/>
                </mxCell>
                <mxCell id="vMTxhLcuIAne0KD6eCTi-9" value="Номера" style="text;strokeColor=none;fillColor=none;align=left;verticalAlign=middle;spacingLeft=4;spacingRight=4;overflow=hidden;points=[[0,0.5],[1,0.5]];portConstraint=eastwest;rotatable=0;whiteSpace=wrap;html=1;fontFamily=Architects Daughter;fontSource=https%3A%2F%2Ffonts.googleapis.com%2Fcss%3Ffamily%3DArchitects%2BDaughter;rounded=0;sketch=1;curveFitting=1;jiggle=2;" parent="vMTxhLcuIAne0KD6eCTi-7" vertex="1">
                    <mxGeometry y="60" width="140" height="30" as="geometry"/>
                </mxCell>
                <mxCell id="vMTxhLcuIAne0KD6eCTi-10" value="Ссылки" style="text;strokeColor=none;fillColor=none;align=left;verticalAlign=middle;spacingLeft=4;spacingRight=4;overflow=hidden;points=[[0,0.5],[1,0.5]];portConstraint=eastwest;rotatable=0;whiteSpace=wrap;html=1;fontFamily=Architects Daughter;fontSource=https%3A%2F%2Ffonts.googleapis.com%2Fcss%3Ffamily%3DArchitects%2BDaughter;rounded=0;sketch=1;curveFitting=1;jiggle=2;" parent="vMTxhLcuIAne0KD6eCTi-7" vertex="1">
                    <mxGeometry y="90" width="140" height="30" as="geometry"/>
                </mxCell>
                <mxCell id="JC5m1BJfiziueZiZWgBC-1" value="Адреса" style="text;strokeColor=none;fillColor=none;align=left;verticalAlign=middle;spacingLeft=4;spacingRight=4;overflow=hidden;points=[[0,0.5],[1,0.5]];portConstraint=eastwest;rotatable=0;whiteSpace=wrap;html=1;fontFamily=Architects Daughter;fontSource=https%3A%2F%2Ffonts.googleapis.com%2Fcss%3Ffamily%3DArchitects%2BDaughter;rounded=0;sketch=1;curveFitting=1;jiggle=2;" parent="vMTxhLcuIAne0KD6eCTi-7" vertex="1">
                    <mxGeometry y="120" width="140" height="30" as="geometry"/>
                </mxCell>
                <mxCell id="vMTxhLcuIAne0KD6eCTi-11" value="" style="endArrow=classic;html=1;rounded=0;hachureGap=4;fontFamily=Architects Daughter;fontSource=https%3A%2F%2Ffonts.googleapis.com%2Fcss%3Ffamily%3DArchitects%2BDaughter;entryX=1.021;entryY=0.083;entryDx=0;entryDy=0;entryPerimeter=0;exitX=0;exitY=0.5;exitDx=0;exitDy=0;sketch=1;curveFitting=1;jiggle=2;" parent="1" source="vMTxhLcuIAne0KD6eCTi-2" target="vMTxhLcuIAne0KD6eCTi-7" edge="1">
                    <mxGeometry width="50" height="50" relative="1" as="geometry">
                        <mxPoint x="340" y="70" as="sourcePoint"/>
                        <mxPoint x="390" y="20" as="targetPoint"/>
                    </mxGeometry>
                </mxCell>
                <mxCell id="vMTxhLcuIAne0KD6eCTi-13" value="Поступающим" style="swimlane;fontStyle=0;childLayout=stackLayout;horizontal=1;startSize=30;horizontalStack=0;resizeParent=1;resizeParentMax=0;resizeLast=0;collapsible=1;marginBottom=0;whiteSpace=wrap;html=1;hachureGap=4;fontFamily=Architects Daughter;fontSource=https%3A%2F%2Ffonts.googleapis.com%2Fcss%3Ffamily%3DArchitects%2BDaughter;rounded=0;sketch=1;curveFitting=1;jiggle=2;" parent="1" vertex="1">
                    <mxGeometry x="780" y="-145" width="140" height="120" as="geometry"/>
                </mxCell>
                <mxCell id="vMTxhLcuIAne0KD6eCTi-14" value="Дни открытых дверей" style="text;strokeColor=none;fillColor=none;align=left;verticalAlign=middle;spacingLeft=4;spacingRight=4;overflow=hidden;points=[[0,0.5],[1,0.5]];portConstraint=eastwest;rotatable=0;whiteSpace=wrap;html=1;fontFamily=Architects Daughter;fontSource=https%3A%2F%2Ffonts.googleapis.com%2Fcss%3Ffamily%3DArchitects%2BDaughter;rounded=0;sketch=1;curveFitting=1;jiggle=2;" parent="vMTxhLcuIAne0KD6eCTi-13" vertex="1">
                    <mxGeometry y="30" width="140" height="30" as="geometry"/>
                </mxCell>
                <mxCell id="vMTxhLcuIAne0KD6eCTi-15" value="Списки" style="text;strokeColor=none;fillColor=none;align=left;verticalAlign=middle;spacingLeft=4;spacingRight=4;overflow=hidden;points=[[0,0.5],[1,0.5]];portConstraint=eastwest;rotatable=0;whiteSpace=wrap;html=1;fontFamily=Architects Daughter;fontSource=https%3A%2F%2Ffonts.googleapis.com%2Fcss%3Ffamily%3DArchitects%2BDaughter;rounded=0;sketch=1;curveFitting=1;jiggle=2;" parent="vMTxhLcuIAne0KD6eCTi-13" vertex="1">
                    <mxGeometry y="60" width="140" height="30" as="geometry"/>
                </mxCell>
                <mxCell id="vMTxhLcuIAne0KD6eCTi-16" value="Общая информация" style="text;strokeColor=none;fillColor=none;align=left;verticalAlign=middle;spacingLeft=4;spacingRight=4;overflow=hidden;points=[[0,0.5],[1,0.5]];portConstraint=eastwest;rotatable=0;whiteSpace=wrap;html=1;fontFamily=Architects Daughter;fontSource=https%3A%2F%2Ffonts.googleapis.com%2Fcss%3Ffamily%3DArchitects%2BDaughter;rounded=0;sketch=1;curveFitting=1;jiggle=2;" parent="vMTxhLcuIAne0KD6eCTi-13" vertex="1">
                    <mxGeometry y="90" width="140" height="30" as="geometry"/>
                </mxCell>
                <mxCell id="vMTxhLcuIAne0KD6eCTi-17" value="" style="endArrow=classic;html=1;rounded=0;hachureGap=4;fontFamily=Architects Daughter;fontSource=https%3A%2F%2Ffonts.googleapis.com%2Fcss%3Ffamily%3DArchitects%2BDaughter;entryX=-0.007;entryY=0.142;entryDx=0;entryDy=0;entryPerimeter=0;exitX=1;exitY=0.5;exitDx=0;exitDy=0;sketch=1;curveFitting=1;jiggle=2;" parent="1" source="vMTxhLcuIAne0KD6eCTi-2" target="vMTxhLcuIAne0KD6eCTi-13" edge="1">
                    <mxGeometry width="50" height="50" relative="1" as="geometry">
                        <mxPoint x="551.5" y="70" as="sourcePoint"/>
                        <mxPoint x="601.5" y="20" as="targetPoint"/>
                    </mxGeometry>
                </mxCell>
                <mxCell id="3" style="edgeStyle=none;sketch=1;hachureGap=4;jiggle=2;curveFitting=1;html=1;entryX=0;entryY=0.5;entryDx=0;entryDy=0;fontFamily=Architects Daughter;fontSource=https%3A%2F%2Ffonts.googleapis.com%2Fcss%3Ffamily%3DArchitects%2BDaughter;fontSize=16;" edge="1" parent="1" source="vMTxhLcuIAne0KD6eCTi-19" target="2">
                    <mxGeometry relative="1" as="geometry"/>
                </mxCell>
                <mxCell id="vMTxhLcuIAne0KD6eCTi-19" value="Главная страница портала" style="html=1;whiteSpace=wrap;rounded=0;sketch=1;curveFitting=1;jiggle=2;" parent="1" vertex="1">
                    <mxGeometry x="314" y="890" width="240" height="80" as="geometry"/>
                </mxCell>
                <mxCell id="vMTxhLcuIAne0KD6eCTi-20" value="" style="endArrow=classic;html=1;rounded=0;hachureGap=4;fontFamily=Architects Daughter;fontSource=https%3A%2F%2Ffonts.googleapis.com%2Fcss%3Ffamily%3DArchitects%2BDaughter;entryX=0.5;entryY=0;entryDx=0;entryDy=0;sketch=1;curveFitting=1;jiggle=2;" parent="1" target="dZgCieCtQWInw7pm0opj-21" edge="1">
                    <mxGeometry width="50" height="50" relative="1" as="geometry">
                        <mxPoint x="440" y="-40" as="sourcePoint"/>
                        <mxPoint x="490" y="-90" as="targetPoint"/>
                    </mxGeometry>
                </mxCell>
                <mxCell id="vMTxhLcuIAne0KD6eCTi-21" value="" style="endArrow=classic;html=1;rounded=0;hachureGap=4;fontFamily=Architects Daughter;fontSource=https%3A%2F%2Ffonts.googleapis.com%2Fcss%3Ffamily%3DArchitects%2BDaughter;entryX=0.461;entryY=-0.011;entryDx=0;entryDy=0;entryPerimeter=0;sketch=1;curveFitting=1;jiggle=2;" parent="1" target="vMTxhLcuIAne0KD6eCTi-19" edge="1">
                    <mxGeometry width="50" height="50" relative="1" as="geometry">
                        <mxPoint x="424" y="800" as="sourcePoint"/>
                        <mxPoint x="474" y="750" as="targetPoint"/>
                    </mxGeometry>
                </mxCell>
                <mxCell id="vMTxhLcuIAne0KD6eCTi-26" value="Прошлых лет" style="rounded=0;whiteSpace=wrap;html=1;hachureGap=4;fontFamily=Architects Daughter;fontSource=https%3A%2F%2Ffonts.googleapis.com%2Fcss%3Ffamily%3DArchitects%2BDaughter;sketch=1;curveFitting=1;jiggle=2;" parent="1" vertex="1">
                    <mxGeometry x="970" y="-135" width="90" height="30" as="geometry"/>
                </mxCell>
                <mxCell id="vMTxhLcuIAne0KD6eCTi-27" value="Динамические" style="rounded=0;whiteSpace=wrap;html=1;hachureGap=4;fontFamily=Architects Daughter;fontSource=https%3A%2F%2Ffonts.googleapis.com%2Fcss%3Ffamily%3DArchitects%2BDaughter;sketch=1;curveFitting=1;jiggle=2;" parent="1" vertex="1">
                    <mxGeometry x="970" y="-75" width="90" height="30" as="geometry"/>
                </mxCell>
                <mxCell id="vMTxhLcuIAne0KD6eCTi-28" value="" style="endArrow=classic;html=1;rounded=0;hachureGap=4;fontFamily=Architects Daughter;fontSource=https%3A%2F%2Ffonts.googleapis.com%2Fcss%3Ffamily%3DArchitects%2BDaughter;sketch=1;curveFitting=1;jiggle=2;" parent="1" edge="1">
                    <mxGeometry width="50" height="50" relative="1" as="geometry">
                        <mxPoint x="920" y="-75" as="sourcePoint"/>
                        <mxPoint x="970" y="-125" as="targetPoint"/>
                    </mxGeometry>
                </mxCell>
                <mxCell id="vMTxhLcuIAne0KD6eCTi-30" value="" style="endArrow=classic;html=1;rounded=0;hachureGap=4;fontFamily=Architects Daughter;fontSource=https%3A%2F%2Ffonts.googleapis.com%2Fcss%3Ffamily%3DArchitects%2BDaughter;sketch=1;curveFitting=1;jiggle=2;" parent="1" edge="1">
                    <mxGeometry width="50" height="50" relative="1" as="geometry">
                        <mxPoint x="920" y="-75" as="sourcePoint"/>
                        <mxPoint x="970" y="-55" as="targetPoint"/>
                    </mxGeometry>
                </mxCell>
                <mxCell id="2" value="Скачать приложение" style="whiteSpace=wrap;html=1;sketch=1;hachureGap=4;jiggle=2;curveFitting=1;fontFamily=Architects Daughter;fontSource=https%3A%2F%2Ffonts.googleapis.com%2Fcss%3Ffamily%3DArchitects%2BDaughter;fontSize=20;strokeWidth=1;fillColor=default;" vertex="1" parent="1">
                    <mxGeometry x="707" y="960" width="120" height="60" as="geometry"/>
                </mxCell>
            </root>
        </mxGraphModel>
    </diagram>
</mxfile>